HIERARCHY
ROOT hip
{
  OFFSET 0 0 0
  CHANNELS 6 Xposition Yposition Zposition Zrotation Yrotation Xrotation
  JOINT abdomen
  {
    OFFSET 0 20.6881 -0.73152
    CHANNELS 3 Zrotation Xrotation Yrotation
    JOINT chest
    {
      OFFSET 0 11.7043 -0.48768
      CHANNELS 3 Zrotation Xrotation Yrotation
      JOINT neck
      {
        OFFSET 0 22.1894 -2.19456
        CHANNELS 3 Zrotation Xrotation Yrotation
        JOINT head
        {
          OFFSET -0.24384 7.07133 1.2192
          CHANNELS 3 Zrotation Xrotation Yrotation
          JOINT leftEye
          {
            OFFSET 4.14528 8.04674 8.04672
            CHANNELS 3 Zrotation Xrotation Yrotation
            End Site
            {
              OFFSET 1 0 0
            }
          }
          JOINT rightEye
          {
            OFFSET -3.6576 8.04674 8.04672
            CHANNELS 3 Zrotation Xrotation Yrotation
            End Site
            {
              OFFSET 1 0 0
            }
          }
        }
      }
      JOINT rCollar
      {
        OFFSET -2.68224 19.2634 -4.8768
        CHANNELS 3 Zrotation Xrotation Yrotation
        JOINT rShldr
        {
          OFFSET -8.77824 -1.95073 1.46304
          CHANNELS 3 Zrotation Xrotation Yrotation
          JOINT rForeArm
          {
            OFFSET -28.1742 -1.7115 0.48768
            CHANNELS 3 Zrotation Xrotation Yrotation
            JOINT rHand
            {
              OFFSET -22.5879 0.773209 7.07136
              CHANNELS 3 Zrotation Xrotation Yrotation
              JOINT rThumb1
              {
                OFFSET -1.2192 -0.487915 3.41376
                CHANNELS 3 Zrotation Xrotation Yrotation
                JOINT rThumb2
                {
                  OFFSET -3.37035 -0.52449 3.41376
                  CHANNELS 3 Zrotation Xrotation Yrotation
                  End Site
                  {
                    OFFSET -1.78271 -1.18214 1.43049
                  }
                }
              }
              JOINT rIndex1
              {
                OFFSET -7.75947 0.938293 5.60832
                CHANNELS 3 Zrotation Xrotation Yrotation
                JOINT rIndex2
                {
                  OFFSET -2.54057 -0.884171 1.56538
                  CHANNELS 3 Zrotation Xrotation Yrotation
                  End Site
                  {
                    OFFSET -1.62519 -0.234802 1.16502
                  }
                }
              }
              JOINT rMid1
              {
                OFFSET -8.24714 1.18213 3.41376
                CHANNELS 3 Zrotation Xrotation Yrotation
                JOINT rMid2
                {
                  OFFSET -3.10165 -0.590103 1.0647
                  CHANNELS 3 Zrotation Xrotation Yrotation
                  End Site
                  {
                    OFFSET -2.48547 -0.328903 0.83742
                  }
                }
              }
              JOINT rRing1
              {
                OFFSET -8.82822 0.546677 1.51678
                CHANNELS 3 Zrotation Xrotation Yrotation
                JOINT rRing2
                {
                  OFFSET -2.60934 -0.819778 -0.0198488
                  CHANNELS 3 Zrotation Xrotation Yrotation
                  End Site
                  {
                    OFFSET -2.33842 -0.294052 0.168128
                  }
                }
              }
              JOINT rPinky1
              {
                OFFSET -8.27202 -0.0477905 -0.4584
                CHANNELS 3 Zrotation Xrotation Yrotation
                JOINT rPinky2
                {
                  OFFSET -1.82734 -0.647385 -0.700984
                  CHANNELS 3 Zrotation Xrotation Yrotation
                  End Site
                  {
                    OFFSET -1.69225 -0.51767 -0.607171
                  }
                }
              }
            }
          }
        }
      }
      JOINT lCollar
      {
        OFFSET 2.68224 19.2634 -4.8768
        CHANNELS 3 Zrotation Xrotation Yrotation
        JOINT lShldr
        {
          OFFSET 8.77824 -1.95073 1.46304
          CHANNELS 3 Zrotation Xrotation Yrotation
          JOINT lForeArm
          {
            OFFSET 28.1742 -1.7115 0.48768
            CHANNELS 3 Zrotation Xrotation Yrotation
            JOINT lHand
            {
              OFFSET 22.5879 0.773209 7.07136
              CHANNELS 3 Zrotation Xrotation Yrotation
              JOINT lThumb1
              {
                OFFSET 1.2192 -0.487915 3.41376
                CHANNELS 3 Zrotation Xrotation Yrotation
                JOINT lThumb2
                {
                  OFFSET 3.37035 -0.52449 3.41376
                  CHANNELS 3 Zrotation Xrotation Yrotation
                  End Site
                  {
                    OFFSET 1.78271 -1.18214 1.43049
                  }
                }
              }
              JOINT lIndex1
              {
                OFFSET 7.75947 0.938293 5.60832
                CHANNELS 3 Zrotation Xrotation Yrotation
                JOINT lIndex2
                {
                  OFFSET 2.54057 -0.884171 1.56538
                  CHANNELS 3 Zrotation Xrotation Yrotation
                  End Site
                  {
                    OFFSET 1.62519 -0.234802 1.16502
                  }
                }
              }
              JOINT lMid1
              {
                OFFSET 8.24714 1.18213 3.41376
                CHANNELS 3 Zrotation Xrotation Yrotation
                JOINT lMid2
                {
                  OFFSET 3.10165 -0.590103 1.0647
                  CHANNELS 3 Zrotation Xrotation Yrotation
                  End Site
                  {
                    OFFSET 2.48547 -0.328903 0.83742
                  }
                }
              }
              JOINT lRing1
              {
                OFFSET 8.82822 0.546677 1.51678
                CHANNELS 3 Zrotation Xrotation Yrotation
                JOINT lRing2
                {
                  OFFSET 2.60934 -0.819778 -0.0198488
                  CHANNELS 3 Zrotation Xrotation Yrotation
                  End Site
                  {
                    OFFSET 2.33842 -0.294052 0.168128
                  }
                }
              }
              JOINT lPinky1
              {
                OFFSET 8.27202 -0.0477905 -0.4584
                CHANNELS 3 Zrotation Xrotation Yrotation
                JOINT lPinky2
                {
                  OFFSET 1.82734 -0.647385 -0.700984
                  CHANNELS 3 Zrotation Xrotation Yrotation
                  End Site
                  {
                    OFFSET 1.69225 -0.51767 -0.607171
                  }
                }
              }
            }
          }
        }
      }
    }
  }
  JOINT rButtock
  {
    OFFSET -8.77824 4.35084 1.2192
    CHANNELS 3 Zrotation Xrotation Yrotation
    JOINT rThigh
    {
      OFFSET 0 -1.70687 -2.19456
      CHANNELS 3 Zrotation Xrotation Yrotation
      JOINT rShin
      {
        OFFSET 0 -36.8199 0.73152
        CHANNELS 3 Zrotation Xrotation Yrotation
        JOINT rFoot
        {
          OFFSET 0.73152 -45.1104 -5.12064
          CHANNELS 3 Zrotation Xrotation Yrotation
          End Site
          {
            OFFSET -1.1221 -3.69964 12.103
          }
        }
      }
    }
  }
  JOINT lButtock
  {
    OFFSET 8.77824 4.35084 1.2192
    CHANNELS 3 Zrotation Xrotation Yrotation
    JOINT lThigh
    {
      OFFSET 0 -1.70687 -2.19456
      CHANNELS 3 Zrotation Xrotation Yrotation
      JOINT lShin
      {
        OFFSET 0 -36.8199 0.73152
        CHANNELS 3 Zrotation Xrotation Yrotation
        JOINT lFoot
        {
          OFFSET -0.73152 -45.1104 -5.12064
          CHANNELS 3 Zrotation Xrotation Yrotation
          End Site
          {
            OFFSET 1.1221 -3.69964 12.103
          }
        }
      }
    }
  }
}
MOTION
Frames:	5
Frame Time:	0.03333
-21.1248 81.5025 -28.670800000000003 9.40519905090332 -27.748104095458984 -35.329402923583984 -14.358397483825684 46.416297912597656 21.607093811035156 -4.090331077575684 -5.8085479736328125 3.3724396228790283 -5.925445079803467 13.742501258850098 -1.5626026391983032 7.945619583129883 -25.187904357910156 -1.0826677083969116 -0.0 0.0 -0.0 -0.0 0.0 -0.0 -0.0 -0.0 -0.0 48.55269241333008 45.963294982910156 4.4834771156311035 -27.62939453125 -28.732995986938477 65.2339096069336 -0.049500253051519394 6.336800575256348 0.8942072987556458 0.0 0.0 -0.0 0.0 0.0 -0.0 0.0 0.0 -0.0 7.730902194976807 5.47491455078125 0.4173222780227661 0.0 0.0 -0.0 2.905566453933716 0.9650754332542419 0.10300818830728531 0.0 0.0 -0.0 10.278596878051758 0.7318810820579529 0.026273518800735474 0.0 0.0 -0.0 2.221662998199463 -0.7334509491920471 -0.20832103490829468 -0.0 -0.0 -0.0 -64.56219482421875 19.539409637451172 -11.407092094421387 22.70370864868164 -16.853370666503906 -45.72761154174805 0.14690987765789032 -11.368913650512695 1.6170302629470825 -0.0 -0.0 -0.0 -0.0 -0.0 -0.0 -0.0 -0.0 -0.0 -7.730902194976807 5.47491455078125 -0.4173222780227661 -0.0 -0.0 -0.0 -2.905566453933716 0.9650754332542419 -0.10300818830728531 -0.0 -0.0 -0.0 -10.278596878051758 0.7318810820579529 -0.026273518800735474 -0.0 -0.0 -0.0 -2.221662998199463 -0.7334509491920471 0.20832103490829468 -0.0 0.0 -0.0 -7.782534122467041 7.3877644538879395 3.3075034618377686 -0.6685131192207336 55.24589920043945 1.8647804260253906 -15.720102310180664 -15.09150218963623 -28.266700744628906 0.0 0.0 0.0 163.5229949951172 -38.579402923583984 144.45201110839844 175.7156219482422 70.72119903564453 -175.83360290527344 0.5482444167137146 -2.708721399307251 5.736169815063477
-20.652 80.2926 -26.8422 8.020207405090332 -27.948497772216797 -33.09369659423828 -11.785216331481934 45.46829605102539 18.957998275756836 -4.517361640930176 -6.226592063903809 2.8602681159973145 -5.506931781768799 13.776899337768555 -1.213727355003357 7.0214409828186035 -26.567398071289062 -0.5367782115936279 -0.0 0.0 -0.0 -0.0 0.0 -0.0 -0.0 0.0 -0.0 51.249698638916016 45.377197265625 1.6116511821746826 -27.684284210205078 -28.979310989379883 65.62409973144531 -0.07216964662075043 7.642322063446045 1.080499291419983 -0.0 0.0 0.0 -0.0 0.0 0.0 -0.0 0.0 0.0 7.730902194976807 5.47491455078125 0.4173222780227661 -0.0 0.0 0.0 2.905566453933716 0.9650754332542419 0.10300818830728531 -0.0 0.0 0.0 10.278596878051758 0.7318810820579529 0.026273518800735474 -0.0 0.0 0.0 2.221662998199463 -0.7334509491920471 -0.20832103490829468 -0.0 0.0 -0.0 -63.240997314453125 18.02178382873535 -12.37740707397461 22.266590118408203 -16.165325164794922 -44.5056037902832 0.2791750431060791 -14.874159812927246 2.1384470462799072 0.0 0.0 -0.0 0.0 0.0 -0.0 0.0 0.0 -0.0 -7.730902194976807 5.47491455078125 -0.4173222780227661 0.0 0.0 -0.0 -2.905566453933716 0.9650754332542419 -0.10300818830728531 0.0 0.0 -0.0 -10.278596878051758 0.7318810820579529 -0.026273518800735474 0.0 0.0 -0.0 -2.221662998199463 -0.7334509491920471 0.20832103490829468 -0.0 0.0 -0.0 -7.690867900848389 5.5775322914123535 3.209296941757202 -0.6714380979537964 57.35420227050781 2.313905715942383 -16.5952091217041 -16.062198638916016 -29.99770164489746 0.0 0.0 0.0 162.06600952148438 -29.32080078125 148.343994140625 177.035888671875 56.910400390625 -177.6148681640625 -0.09116636216640472 1.7368357181549072 8.069958686828613
-20.4994 78.6676 -25.166800000000002 5.883500099182129 -28.239601135253906 -30.253894805908203 -8.750838279724121 44.73490905761719 16.295583724975586 -4.746300220489502 -7.071144104003906 2.3909857273101807 -5.114006042480469 13.7686128616333 -0.8712502717971802 6.3504638671875 -27.0242977142334 0.003694708226248622 -0.0 0.0 -0.0 -0.0 0.0 -0.0 -0.0 0.0 -0.0 53.8927001953125 44.96440124511719 -1.5706157684326172 -27.74120330810547 -29.243698120117188 66.04240417480469 -0.09998543560504913 8.982429504394531 1.2728787660598755 -0.0 -0.0 -0.0 -0.0 -0.0 -0.0 -0.0 -0.0 -0.0 7.730902194976807 5.47491455078125 0.4173222780227661 -0.0 -0.0 -0.0 2.905566453933716 0.9650754332542419 0.10300818830728531 -0.0 -0.0 -0.0 10.278596878051758 0.7318810820579529 0.026273518800735474 -0.0 -0.0 -0.0 2.221662998199463 -0.7334509491920471 -0.20832103490829468 -0.0 0.0 -0.0 -62.269691467285156 16.819616317749023 -13.139899253845215 21.896703720092773 -15.601573944091797 -43.518001556396484 0.3683681786060333 -16.679668426513672 2.416027784347534 0.0 0.0 -0.0 0.0 0.0 -0.0 0.0 0.0 -0.0 -7.730902194976807 5.47491455078125 -0.4173222780227661 0.0 0.0 -0.0 -2.905566453933716 0.9650754332542419 -0.10300818830728531 0.0 0.0 -0.0 -10.278596878051758 0.7318810820579529 -0.026273518800735474 0.0 0.0 -0.0 -2.221662998199463 -0.7334509491920471 0.20832103490829468 -0.0 0.0 -0.0 -7.055843830108643 4.183383464813232 2.677800416946411 -0.6857056021690369 59.14501190185547 2.707361936569214 -17.36170196533203 -16.77469825744629 -31.604598999023438 0.0 0.0 0.0 160.77099609375 -21.997098922729492 151.55499267578125 177.50704956054688 45.71420669555664 -178.58905029296875 -1.7303125858306885 9.397028923034668 8.715850830078125
-20.3841 77.2291 -23.8392 3.734912157058716 -27.589801788330078 -27.677003860473633 -5.210086345672607 44.218318939208984 13.583016395568848 -4.785818099975586 -8.342540740966797 1.9641785621643066 -4.745892524719238 13.717507362365723 -0.5355695486068726 5.903348922729492 -26.558496475219727 0.5259369015693665 -0.0 0.0 -0.0 -0.0 0.0 -0.0 -0.0 -0.0 -0.0 56.520198822021484 44.697505950927734 -5.088533401489258 -27.79930305480957 -29.525197982788086 66.49009704589844 -0.13339608907699585 10.357192993164062 1.471787452697754 -0.0 -0.0 -0.0 -0.0 -0.0 -0.0 -0.0 -0.0 -0.0 7.730902194976807 5.47491455078125 0.4173222780227661 -0.0 -0.0 -0.0 2.905566453933716 0.9650754332542419 0.10300818830728531 -0.0 -0.0 -0.0 10.278596878051758 0.7318810820579529 0.026273518800735474 -0.0 -0.0 -0.0 2.221662998199463 -0.7334509491920471 -0.20832103490829468 -0.0 -0.0 -0.0 -61.62230682373047 15.930577278137207 -13.699300765991211 21.610300064086914 -15.181205749511719 -42.7567024230957 0.3586626350879669 -16.78803253173828 2.4302585124969482 0.0 0.0 0.0 0.0 0.0 0.0 0.0 0.0 0.0 -7.730902194976807 5.47491455078125 -0.4173222780227661 0.0 0.0 0.0 -2.905566453933716 0.9650754332542419 -0.10300818830728531 0.0 0.0 0.0 -10.278596878051758 0.7318810820579529 -0.026273518800735474 0.0 0.0 0.0 -2.221662998199463 -0.7334509491920471 0.20832103490829468 -0.0 0.0 -0.0 -5.897765159606934 3.2037277221679688 1.7121919393539429 -0.6876428127288818 60.61930847167969 3.0247552394866943 -17.992996215820312 -17.24370574951172 -33.075401306152344 0.0 0.0 0.0 160.05599975585938 -16.589805603027344 154.9250030517578 177.77603149414062 37.136505126953125 -179.46722412109375 -3.808208703994751 20.354692459106445 7.815786838531494
-20.253 76.0658 -22.9006 2.1452064514160156 -26.354400634765625 -25.440404891967773 -2.4255614280700684 43.452903747558594 11.209203720092773 -4.389914512634277 -9.273578643798828 1.6327917575836182 -4.448014736175537 13.680806159973145 -0.21937350928783417 5.3510823249816895 -26.62889289855957 1.0126614570617676 -0.0 0.0 -0.0 -0.0 0.0 -0.0 -0.0 -0.0 -0.0 58.50270080566406 44.10789489746094 -7.8851799964904785 -27.843793869018555 -29.751304626464844 66.85320281982422 -0.14291629195213318 10.714399337768555 1.5239579677581787 -0.0 -0.0 -0.0 -0.0 -0.0 -0.0 -0.0 -0.0 -0.0 7.730902194976807 5.47491455078125 0.4173222780227661 -0.0 -0.0 -0.0 2.905566453933716 0.9650754332542419 0.10300818830728531 -0.0 -0.0 -0.0 10.278596878051758 0.7318810820579529 0.026273518800735474 -0.0 -0.0 -0.0 2.221662998199463 -0.7334509491920471 -0.20832103490829468 -0.0 -0.0 -0.0 -61.557193756103516 15.331710815429688 -13.917296409606934 21.704803466796875 -15.320892333984375 -42.99790573120117 0.3893420994281769 -17.148704528808594 2.4879956245422363 -0.0 -0.0 -0.0 -0.0 -0.0 -0.0 -0.0 -0.0 -0.0 -7.730902194976807 5.47491455078125 -0.4173222780227661 -0.0 -0.0 -0.0 -2.905566453933716 0.9650754332542419 -0.10300818830728531 -0.0 -0.0 -0.0 -10.278596878051758 0.7318810820579529 -0.026273518800735474 -0.0 -0.0 -0.0 -2.221662998199463 -0.7334509491920471 0.20832103490829468 -0.0 0.0 -0.0 -5.304588794708252 2.063436508178711 0.16701199114322662 -0.7064642310142517 61.81850051879883 3.267871379852295 -18.600101470947266 -18.04990005493164 -33.88690185546875 0.0 0.0 0.0 158.10499572753906 -15.93699836730957 156.0229949951172 177.81797790527344 32.63759994506836 -179.94692993164062 -4.6805009841918945 25.754009246826172 6.035768032073975
